<svg id="Layer_1" data-name="Layer 1" xmlns="http://www.w3.org/2000/svg" viewBox="0 0 512 512"><defs><style>.cls-1{fill:#3b83f8;}</style></defs><circle class="cls-1" cx="256" cy="256" r="136"/><path d="M256,424c-92.63,0-168-75.37-168-168S163.37,88,256,88s168,75.37,168,168a167.9,167.9,0,0,1-22.48,84,8,8,0,0,1-13.85-8A151.87,151.87,0,0,0,408,256c0-83.81-68.19-152-152-152S104,172.19,104,256s68.19,152,152,152a151.92,151.92,0,0,0,115.52-53.2,8,8,0,1,1,12.15,10.4A167.88,167.88,0,0,1,256,424Z"/><path d="M256,72a8,8,0,0,1-8-8V16a8,8,0,0,1,16,0V64A8,8,0,0,1,256,72Z"/><path d="M256,72a8.05,8.05,0,0,1-4.44-1.34l-24-16a8,8,0,1,1,8.88-13.32l19.56,13,19.56-13a8,8,0,1,1,8.88,13.32l-24,16A8.05,8.05,0,0,1,256,72Z"/><path d="M120.23,128.23a8,8,0,0,1-5.65-2.34L80.64,92A8,8,0,0,1,92,80.64l33.94,33.94a8,8,0,0,1-5.66,13.65Z"/><path d="M92,133.89a8,8,0,0,1-1.57-15.84l23.06-4.61,4.61-23.06a8,8,0,0,1,15.68,3.14l-5.65,28.28a8,8,0,0,1-6.28,6.28l-28.28,5.65A7.75,7.75,0,0,1,92,133.89Z"/><path d="M64,264H16a8,8,0,0,1,0-16H64a8,8,0,0,1,0,16Z"/><path d="M48,288a8,8,0,0,1-6.65-12.44l13-19.56-13-19.56a8,8,0,1,1,13.32-8.88l16,24a8,8,0,0,1,0,8.88l-16,24A8,8,0,0,1,48,288Z"/><path d="M86.3,433.7a8,8,0,0,1-5.66-13.65l33.94-33.94a8,8,0,1,1,11.31,11.31L92,431.36A8,8,0,0,1,86.3,433.7Z"/><path d="M125.88,428.05a8,8,0,0,1-7.83-6.43l-4.61-23.06L90.38,394a8,8,0,1,1,3.14-15.68l28.28,5.65a8,8,0,0,1,6.28,6.28l5.65,28.28a8,8,0,0,1-6.27,9.41A7.77,7.77,0,0,1,125.88,428.05Z"/><path d="M256,504a8,8,0,0,1-8-8V448a8,8,0,0,1,16,0v48A8,8,0,0,1,256,504Z"/><path d="M280,472a8.06,8.06,0,0,1-4.43-1.34l-19.56-13-19.56,13a8,8,0,1,1-8.88-13.32l24-16a8,8,0,0,1,8.88,0l24,16A8,8,0,0,1,280,472Z"/><path d="M425.7,433.7a8,8,0,0,1-5.65-2.34l-33.94-33.94a8,8,0,1,1,11.31-11.31l33.94,33.94a8,8,0,0,1-5.66,13.65Z"/><path d="M386.12,428.05a7.77,7.77,0,0,1-1.58-.16,8,8,0,0,1-6.27-9.41l5.65-28.28a8,8,0,0,1,6.28-6.28l28.28-5.65A8,8,0,1,1,421.62,394l-23.06,4.61L394,421.62A8,8,0,0,1,386.12,428.05Z"/><path d="M496,264H448a8,8,0,0,1,0-16h48a8,8,0,0,1,0,16Z"/><path d="M464,288a8,8,0,0,1-6.67-3.56l-16-24a8,8,0,0,1,0-8.88l16-24a8,8,0,0,1,13.32,8.88l-13,19.56,13,19.56A8,8,0,0,1,464,288Z"/><path d="M391.77,128.23a8,8,0,0,1-5.66-13.65l33.94-33.94A8,8,0,1,1,431.36,92l-33.94,33.94A8,8,0,0,1,391.77,128.23Z"/><path d="M420.05,133.89a7.75,7.75,0,0,1-1.57-.16l-28.28-5.65a8,8,0,0,1-6.28-6.28l-5.65-28.28A8,8,0,0,1,394,90.38l4.61,23.06,23.06,4.61a8,8,0,0,1-1.57,15.84Z"/><path d="M256,280a64.07,64.07,0,0,1-64-64V184a64,64,0,0,1,128,0v32A64.07,64.07,0,0,1,256,280Zm0-144a48.05,48.05,0,0,0-48,48v32a48,48,0,0,0,96,0V184A48.05,48.05,0,0,0,256,136Z"/><path d="M312,200H297.89A36.78,36.78,0,0,1,272,189.45,36.78,36.78,0,0,1,246.11,200H200a8,8,0,0,1,0-16h46.11a20.83,20.83,0,0,0,18.73-11.58c2.72-5.42,11.6-5.42,14.32,0A20.83,20.83,0,0,0,297.89,184H312a8,8,0,0,1,0,16Z"/><path d="M352,392a8,8,0,0,1-8-8V329.27a40.19,40.19,0,0,0-25.95-37.46l-32.86-12.32a8,8,0,1,1,5.62-15l32.85,12.32A56.25,56.25,0,0,1,360,329.27V384A8,8,0,0,1,352,392Z"/><path d="M160,392a8,8,0,0,1-8-8V329.27a56.25,56.25,0,0,1,36.34-52.44l32.85-12.32a8,8,0,0,1,5.62,15L194,291.81a40.18,40.18,0,0,0-26,37.46V384A8,8,0,0,1,160,392Z"/><path d="M256,376a7.93,7.93,0,0,1-2.53-.41l-48-16A8,8,0,0,1,201.05,348l4.5-7.87L187.2,326.4a8,8,0,0,1-3-8.34l8-32a8,8,0,1,1,15.52,3.88l-6.71,26.85L220.8,331.6A8,8,0,0,1,223,342l-3.16,5.53,21.33,7.11-32.4-71.3a8,8,0,0,1,14.56-6.62l40,88A8,8,0,0,1,256,376Z"/><path d="M256,376a8,8,0,0,1-7.28-11.31l40-88a8,8,0,1,1,14.56,6.62l-32.4,71.3,21.33-7.11L289.05,342a8,8,0,0,1,2.15-10.37L311,316.79l-6.71-26.85a8,8,0,0,1,15.52-3.88l8,32a8,8,0,0,1-3,8.34l-18.35,13.76L311,348a8,8,0,0,1-4.42,11.56l-48,16A7.93,7.93,0,0,1,256,376Z"/><path d="M256,424a8,8,0,0,1-8-8V360a8,8,0,0,1,16,0v56A8,8,0,0,1,256,424Z"/></svg>