<svg id="Layer_1" data-name="Layer 1" xmlns="http://www.w3.org/2000/svg" viewBox="0 0 512 512"><defs><style>.cls-1,.cls-3{fill:#fff;}.cls-2{fill:#3b83f8;}.cls-3{fill-rule:evenodd;}</style></defs><path class="cls-1" d="M448,504H64A56.06,56.06,0,0,1,8,448V176a56.06,56.06,0,0,1,56-56H208a8,8,0,0,1,0,16H64a40.05,40.05,0,0,0-40,40V448a40.05,40.05,0,0,0,40,40H448a40.05,40.05,0,0,0,40-40V176a40.05,40.05,0,0,0-40-40H432a8,8,0,0,1,0-16h16a56.06,56.06,0,0,1,56,56V448A56.06,56.06,0,0,1,448,504Z"/><path class="cls-1" d="M280,328H176a8,8,0,0,1-8-8V160a8,8,0,0,1,16,0V312h96a8,8,0,0,1,0,16Z"/><path class="cls-1" d="M440,472H72a32,32,0,0,1-32-32V184a32,32,0,0,1,32-32H208a8,8,0,0,1,0,16H72a16,16,0,0,0-16,16V440a16,16,0,0,0,16,16H440a16,16,0,0,0,16-16V184a16,16,0,0,0-16-16h-8a8,8,0,0,1,0-16h8a32,32,0,0,1,32,32V440A32,32,0,0,1,440,472Z"/><path class="cls-1" d="M464,328H360a8,8,0,0,1,0-16H464a8,8,0,0,1,0,16Z"/><path class="cls-1" d="M288,472a8,8,0,0,1-8-8V392H48a8,8,0,0,1,0-16H288a8,8,0,0,1,8,8v80A8,8,0,0,1,288,472Z"/><path class="cls-1" d="M352,472a8,8,0,0,1-8-8V384a8,8,0,0,1,8-8H464a8,8,0,0,1,0,16H360v72A8,8,0,0,1,352,472Z"/><path class="cls-2" d="M320,360a44.77,44.77,0,0,1-41-26.75L210.16,176.77A119.21,119.21,0,0,1,200,128.45V128a120,120,0,1,1,229.84,48.78L361,333.25A44.77,44.77,0,0,1,320,360Z"/><path class="cls-1" d="M112,328H48a8,8,0,0,1,0-16h56V160a8,8,0,0,1,16,0V320A8,8,0,0,1,112,328Z"/><path class="cls-1" d="M320,216a88,88,0,1,1,88-88A88.1,88.1,0,0,1,320,216Zm0-160a72,72,0,1,0,72,72A72.08,72.08,0,0,0,320,56Z"/><circle class="cls-1" cx="320" cy="240" r="8"/><circle class="cls-1" cx="320" cy="272" r="8"/><circle class="cls-1" cx="320" cy="304" r="8"/><path class="cls-3" d="M293.09,153.12c-15.73,0-26.21-8.29-26.21-24.68,0-15.09,9.37-25.07,24.4-25.07h9.14v9.28h-5.19c-11.18,0-15.2,5-15.2,15.61,0,9.55,2.63,15.73,14.06,15.73h10v-8.8l12.79,10.88v7.05Zm43.79-18.56v18.56h-12.8V139.27l-20-17.17V103.38h12.74v14.16Zm0-21.93v8.46l-12.8-10.32v-7.4h25.59c16.57,0,23.5,8.75,24.33,21.65v5.42c-.46,7.13-2.85,14.14-9,18.33-6.57,4.51-14.36,4.44-21.85,4.36h-2.82V144h4c12.12,0,16.6-2.45,16.55-14.84,0-9.83-2.72-16.52-13.81-16.52Z"/></svg>