<svg id="Layer_1" data-name="Layer 1" xmlns="http://www.w3.org/2000/svg" viewBox="0 0 512 512"><defs><style>.cls-1{fill:#3b83f8;}.cls-2{fill-rule:evenodd;}</style></defs><circle class="cls-1" cx="256" cy="160" r="88"/><path d="M464,504H48a8,8,0,0,1,0-16H464a8,8,0,0,1,0,16Z"/><circle cx="496" cy="496" r="8"/><circle cx="16" cy="496" r="8"/><path d="M368,328a8,8,0,0,1-8-8V48a8,8,0,0,1,16,0V320A8,8,0,0,1,368,328Z"/><path d="M144,328a8,8,0,0,1-8-8V48a8,8,0,0,1,16,0V320A8,8,0,0,1,144,328Z"/><path d="M368,504a8,8,0,0,1-8-8V352a8,8,0,0,1,16,0V496A8,8,0,0,1,368,504Z"/><path d="M144,504a8,8,0,0,1-8-8V352a8,8,0,0,1,16,0V496A8,8,0,0,1,144,504Z"/><path d="M384,56H352a8,8,0,0,1,0-16h24V24H136V40H320a8,8,0,0,1,0,16H128a8,8,0,0,1-8-8V16a8,8,0,0,1,8-8H384a8,8,0,0,1,8,8V48A8,8,0,0,1,384,56Z"/><path d="M384,360H352a8,8,0,0,1,0-16h24V328H136v16H320a8,8,0,0,1,0,16H128a8,8,0,0,1-8-8V320a8,8,0,0,1,8-8H384a8,8,0,0,1,8,8v32A8,8,0,0,1,384,360Z"/><path d="M448,504a8,8,0,0,1-8-8V256a8,8,0,0,1,16,0V496A8,8,0,0,1,448,504Z"/><path d="M256,504a8,8,0,0,1-8-8V384a8,8,0,0,1,16,0V496A8,8,0,0,1,256,504Z"/><path d="M336,392H176a8,8,0,0,1,0-16H336a8,8,0,0,1,0,16Z"/><path d="M192,504a8,8,0,0,1-8-8V384a8,8,0,0,1,16,0V496A8,8,0,0,1,192,504Z"/><path d="M320,504a8,8,0,0,1-8-8V384a8,8,0,0,1,16,0V496A8,8,0,0,1,320,504Z"/><path d="M464,264H400a8,8,0,0,1,0-16h56V232H368a8,8,0,0,1,0-16h96a8,8,0,0,1,8,8v32A8,8,0,0,1,464,264Z"/><path d="M64,504a8,8,0,0,1-8-8V256a8,8,0,0,1,16,0V496A8,8,0,0,1,64,504Z"/><path d="M112,264H48a8,8,0,0,1-8-8V224a8,8,0,0,1,8-8h96a8,8,0,0,1,0,16H56v16h56a8,8,0,0,1,0,16Z"/><path class="cls-2" d="M220.18,193.21c-20.85,0-34.74-11-34.74-32.71,0-20,12.42-33.24,32.34-33.24h12.11v12.3H223c-14.82,0-20.15,6.63-20.15,20.71,0,12.65,3.48,20.85,18.64,20.85h13.25V169.44l17,14.43v9.34Zm58.06-24.6v24.6h-17V174.86l-26.5-22.77V127.28h16.89v18.77Zm0-29.07v11.22l-17-13.68v-9.82h33.93c22,0,31.16,11.6,32.25,28.7v7.19c-.61,9.45-3.78,18.75-12,24.31-8.71,6-19,5.87-29,5.77l-3.74,0V181.12h5.3c16.07,0,22-3.26,21.95-19.69,0-13-3.6-21.89-18.3-21.89Z"/></svg>