<svg id="Layer_1" data-name="Layer 1" xmlns="http://www.w3.org/2000/svg" viewBox="0 0 512 512"><defs><style>.cls-1{fill:#3b83f8;}.cls-2,.cls-3{fill:#fff;}.cls-3{fill-rule:evenodd;}</style></defs><circle class="cls-1" cx="256" cy="348.9" r="85.16"/><path class="cls-2" d="M256,77.94a31,31,0,1,1,31-31A31,31,0,0,1,256,77.94Zm0-46.46A15.49,15.49,0,1,0,271.48,47,15.5,15.5,0,0,0,256,31.48Z"/><path class="cls-2" d="M472.77,217.29h-31a7.74,7.74,0,1,1,0-15.48h31a7.75,7.75,0,1,0,0-15.49H39.23a7.75,7.75,0,1,0,0,15.49H410.84a7.74,7.74,0,1,1,0,15.48H39.23a23.23,23.23,0,1,1,0-46.45H472.77a23.23,23.23,0,1,1,0,46.45Z"/><path class="cls-2" d="M457.29,496H54.71A7.73,7.73,0,0,1,47,488.26V209.55a7.74,7.74,0,1,1,15.48,0v271h387.1v-271a7.74,7.74,0,1,1,15.48,0V488.26A7.73,7.73,0,0,1,457.29,496Z"/><path class="cls-2" d="M426.31,186.32a7.71,7.71,0,0,1-4.72-1.62l-152-117.46A7.74,7.74,0,0,1,279,55l152,117.47a7.74,7.74,0,0,1-4.75,13.86Z"/><path class="cls-2" d="M85.69,186.32a7.74,7.74,0,0,1-4.75-13.86L233,55a7.74,7.74,0,0,1,9.47,12.25L90.41,184.7A7.71,7.71,0,0,1,85.69,186.32Z"/><path class="cls-2" d="M287,310.19a7.74,7.74,0,0,1-5.14-13.52l69.67-61.94a7.76,7.76,0,0,1,5.15-2h69.67a7.75,7.75,0,0,1,0,15.49H359.59l-67.48,60A7.72,7.72,0,0,1,287,310.19Z"/><circle class="cls-2" cx="426.32" cy="271.48" r="7.74"/><path class="cls-2" d="M395.35,279.23h-31a7.75,7.75,0,0,1,0-15.49h31a7.75,7.75,0,1,1,0,15.49Z"/><path class="cls-2" d="M155.35,465H85.68a7.74,7.74,0,0,1,0-15.48h66.73l67.48-60a7.74,7.74,0,1,1,10.28,11.57L160.5,463.07A7.71,7.71,0,0,1,155.35,465Z"/><circle class="cls-2" cx="85.68" cy="426.32" r="7.74"/><path class="cls-2" d="M147.61,434.06h-31a7.74,7.74,0,1,1,0-15.48h31a7.74,7.74,0,0,1,0,15.48Z"/><path class="cls-3" d="M221.18,382.21c-20.85,0-34.74-11-34.74-32.71,0-20,12.42-33.24,32.34-33.24h12.11v12.3H224c-14.82,0-20.15,6.63-20.15,20.71,0,12.65,3.48,20.85,18.64,20.85h13.25V358.44l17,14.43v9.34Zm58.06-24.6v24.6h-17V363.86l-26.5-22.77V316.28h16.89v18.77Zm0-29.07v11.22l-17-13.68v-9.82h33.93c22,0,31.16,11.6,32.25,28.7v7.19c-.61,9.45-3.78,18.75-12,24.31-8.71,6-19,5.87-29,5.77l-3.74,0V370.12h5.3c16.07,0,22-3.26,21.95-19.69,0-13-3.6-21.89-18.3-21.89Z"/></svg>