<svg id="Layer_1" data-name="Layer 1" xmlns="http://www.w3.org/2000/svg" viewBox="0 0 512 512"><defs><style>.cls-1{fill:#3b83f8;}.cls-2{fill:#fff;fill-rule:evenodd;}</style></defs><path d="M255.54,495.41c-132.18,0-239.7-107.52-239.7-239.7S123.36,16,255.54,16s239.7,107.52,239.7,239.69S387.71,495.41,255.54,495.41Zm0-463.93C131.9,31.48,31.3,132.07,31.3,255.71S131.9,480,255.54,480s224.23-100.6,224.23-224.24S379.18,31.48,255.54,31.48Z"/><path d="M482.31,91.08a7.59,7.59,0,0,1-2.33-.36,7.73,7.73,0,0,1-5.05-9.7c6.67-21.15,6.39-36.75-.78-43.92-12.82-12.79-49.43-3.74-98,24.27A7.73,7.73,0,1,1,368.45,48c40.05-23.12,92.8-45.65,116.63-21.81,11.78,11.77,13.33,31.79,4.61,59.5A7.76,7.76,0,0,1,482.31,91.08Z"/><path d="M54.34,495.39C42.61,495.4,33,492.22,26,485.26c-23.84-23.84-1.3-76.58,21.81-116.63a7.73,7.73,0,0,1,13.4,7.73c-28,48.53-37.09,85.16-24.27,98,22.24,22.2,119.8-21.76,238.75-131.51a7.74,7.74,0,0,1,10.48,11.38C205.68,428.44,108.19,495.38,54.34,495.39Z"/><path d="M255.54,495.41a7.73,7.73,0,0,1-7.74-7.73V23.75a7.74,7.74,0,0,1,15.47,0V487.68A7.73,7.73,0,0,1,255.54,495.41Z"/><path d="M255.54,263.45h-232a7.74,7.74,0,0,1,0-15.47h232a7.74,7.74,0,0,1,0,15.47Z"/><path d="M255.54,495.41a7.73,7.73,0,0,1-4.39-14.09c.59-.41,58.86-41.14,93.9-113a7.73,7.73,0,1,1,13.9,6.78c-36.9,75.67-96.51,117.23-99,119A7.64,7.64,0,0,1,255.54,495.41Z"/><path d="M369.89,194.55a7.74,7.74,0,0,1-7.45-5.67C334.75,88.69,252,30.69,251.15,30.11a7.73,7.73,0,0,1,8.77-12.74C263.5,19.84,348.1,79,377.35,184.76a7.73,7.73,0,0,1-7.46,9.79Z"/><path d="M255.54,155.2c-134.4,0-167.74-55.66-169.09-58a7.73,7.73,0,0,1,13.39-7.72c.49.81,31.77,50.28,155.7,50.28C381,139.73,410.91,90,411.2,89.5a7.73,7.73,0,1,1,13.43,7.67C423.28,99.54,389.93,155.2,255.54,155.2Z"/><path d="M255.53,495.41a7.59,7.59,0,0,1-4.37-1.36C246,490.48,124.09,405,124.09,255.71S246,21,251.16,17.37a7.73,7.73,0,0,1,8.76,12.74c-1.2.83-120.37,84.64-120.37,225.6,0,141.22,119.17,224.77,120.37,225.6a7.73,7.73,0,0,1-4.39,14.1Z"/><path d="M417.92,425.82a7.75,7.75,0,0,1-6.69-3.84c-.49-.81-31.77-50.28-155.69-50.28-125.51,0-155.38,49.73-155.67,50.23a7.73,7.73,0,0,1-13.42-7.67c1.35-2.38,34.69-58,169.09-58s167.74,55.65,169.09,58a7.72,7.72,0,0,1-2.88,10.54A7.61,7.61,0,0,1,417.92,425.82Z"/><circle cx="472.04" cy="108.8" r="7.73"/><path d="M487.5,263.45H441.11a7.74,7.74,0,0,1,0-15.47H487.5a7.74,7.74,0,1,1,0,15.47Z"/><circle class="cls-1" cx="348.32" cy="278.91" r="100.52"/><path class="cls-2" d="M312.18,312.21c-20.85,0-34.74-11-34.74-32.71,0-20,12.42-33.24,32.34-33.24h12.11v12.3H315c-14.82,0-20.15,6.63-20.15,20.71,0,12.65,3.48,20.85,18.64,20.85h13.25V288.44l17,14.43v9.34Zm58.06-24.6v24.6h-17V293.86l-26.5-22.77V246.28h16.89v18.77Zm0-29.07v11.22l-17-13.68v-9.82h33.93c22,0,31.16,11.6,32.25,28.7v7.19c-.61,9.45-3.78,18.75-12,24.31-8.71,6-19,5.87-29,5.77l-3.74,0V300.12h5.3c16.07,0,22-3.26,21.95-19.69,0-13-3.6-21.89-18.3-21.89Z"/></svg>