<svg id="Layer_1" data-name="Layer 1" xmlns="http://www.w3.org/2000/svg" viewBox="0 0 512 512"><defs><style>.cls-1{fill:#3b83f8;}</style></defs><path class="cls-1" d="M432,151.91H80a24,24,0,0,0-24,24V432h400.1V175.92A24,24,0,0,0,432,151.91Z"/><path d="M400,103.9a8,8,0,0,1-8-8v-16a8,8,0,0,1,8-8h14.37L376,28,337.65,71.89H352a8,8,0,0,1,8,8v16a8,8,0,0,1-16,0v-8H320a8,8,0,0,1-6-13.27l56-64a8.26,8.26,0,0,1,12.05,0l56,64a8,8,0,0,1-6,13.27H408v8A8,8,0,0,1,400,103.9Z"/><path d="M160,103.9a8,8,0,0,1-8-8v-16a8,8,0,0,1,8-8h14.37L136,28,97.59,71.89H112a8,8,0,0,1,8,8v16a8,8,0,0,1-16,0v-8H80a8,8,0,0,1-6-13.27l56-64a8.26,8.26,0,0,1,12.05,0l56,64a8,8,0,0,1-6,13.27H168v8A8,8,0,0,1,160,103.9Z"/><path d="M464.05,504H48a40.06,40.06,0,0,1-40-40V432a8,8,0,0,1,8-8H496.06a8,8,0,0,1,8,8v32A40.06,40.06,0,0,1,464.05,504ZM23.94,440v24a24,24,0,0,0,24,24h416.1a24,24,0,0,0,24-24V440Z"/><path d="M296,472H216a24,24,0,0,1-24-24V432a8,8,0,0,1,16,0v16a8,8,0,0,0,8,8h80a8,8,0,0,0,8-8V432a8,8,0,0,1,16,0v16A24,24,0,0,1,296,472Z"/><path d="M480.05,432a8,8,0,0,1-8-8V175.92a40.06,40.06,0,0,0-40-40H80a40.06,40.06,0,0,0-40,40V424a8,8,0,0,1-16,0V175.92a56.08,56.08,0,0,1,56-56H432a56.08,56.08,0,0,1,56,56V424A8,8,0,0,1,480.05,432Z"/><circle cx="47.95" cy="463.99" r="8"/><circle cx="79.96" cy="463.99" r="8"/><circle cx="111.96" cy="463.99" r="8"/><path d="M200,392a96,96,0,1,1,96-96A96.13,96.13,0,0,1,200,392Zm0-176a80,80,0,1,0,80,80A80.11,80.11,0,0,0,200,215.93Z"/><path d="M272,352a7.93,7.93,0,0,1-4.43-1.34l-72-48A8,8,0,0,1,192,296v-88a8,8,0,0,1,16,0v83.74l68.45,45.63A8,8,0,0,1,272,352Z"/><path d="M152,376a8,8,0,0,1-6.65-12.44l48-72a8,8,0,1,1,13.31,8.88l-48,72A8,8,0,0,1,152,376Z"/><path d="M416,199.93H304a8,8,0,0,1,0-16H416a8,8,0,0,1,0,16Z"/><circle cx="416.04" cy="223.93" r="8"/><path d="M384,231.93H304a8,8,0,0,1,0-16h80a8,8,0,0,1,0,16Z"/><path d="M416,376H304a8,8,0,0,1,0-16H416a8,8,0,0,1,0,16Z"/><circle cx="416.04" cy="399.97" r="8"/><path d="M384,408H304a8,8,0,0,1,0-16h80a8,8,0,0,1,0,16Z"/></svg>