<svg id="Layer_1" data-name="Layer 1" xmlns="http://www.w3.org/2000/svg" viewBox="0 0 512 512"><defs><style>.cls-1{fill:#3b83f8;}</style></defs><path d="M457.29,418.58H54.71A7.73,7.73,0,0,1,47,410.84V23.74A7.73,7.73,0,0,1,54.71,16H457.29A7.73,7.73,0,0,1,465,23.74V70.19a7.74,7.74,0,1,1-15.48,0V31.48H62.45V403.1h387.1V101.16a7.74,7.74,0,1,1,15.48,0V410.84A7.73,7.73,0,0,1,457.29,418.58Z"/><path d="M256,496a54.26,54.26,0,0,1-53.64-46.45H23.74A7.73,7.73,0,0,1,16,441.81V54.71A7.73,7.73,0,0,1,23.74,47h31a7.74,7.74,0,0,1,0,15.48H31.48V434.06H209.55a7.74,7.74,0,0,1,7.74,7.75,38.71,38.71,0,1,0,77.42,0,7.74,7.74,0,0,1,7.74-7.75H480.52V62.45H457.29a7.74,7.74,0,0,1,0-15.48h31A7.73,7.73,0,0,1,496,54.71v387.1a7.73,7.73,0,0,1-7.74,7.74H309.64A54.26,54.26,0,0,1,256,496Z"/><rect class="cls-1" x="77.94" y="46.97" width="356.13" height="216.77"/><path d="M240.52,387.61H85.68a7.74,7.74,0,0,1,0-15.48H240.52a7.74,7.74,0,0,1,0,15.48Z"/><path d="M240.52,356.65H85.68a7.75,7.75,0,0,1,0-15.49H240.52a7.75,7.75,0,0,1,0,15.49Z"/><path d="M240.52,294.71H85.68a7.74,7.74,0,0,1,0-15.48H240.52a7.74,7.74,0,0,1,0,15.48Z"/><path d="M395.35,387.61H271.48a7.74,7.74,0,0,1,0-15.48H395.35a7.74,7.74,0,1,1,0,15.48Z"/><path d="M426.32,356.65H271.48a7.75,7.75,0,0,1,0-15.49H426.32a7.75,7.75,0,0,1,0,15.49Z"/><path d="M426.32,325.68H271.48a7.75,7.75,0,0,1,0-15.49H426.32a7.75,7.75,0,0,1,0,15.49Z"/><path d="M426.32,294.71H271.48a7.74,7.74,0,0,1,0-15.48H426.32a7.74,7.74,0,1,1,0,15.48Z"/><path d="M132.13,232.77a23.23,23.23,0,1,1,23.22-23.22A23.25,23.25,0,0,1,132.13,232.77Zm0-31a7.74,7.74,0,1,0,7.74,7.74A7.75,7.75,0,0,0,132.13,201.81Z"/><path d="M194.06,147.61a23.23,23.23,0,1,1,23.23-23.22A23.25,23.25,0,0,1,194.06,147.61Zm0-31a7.74,7.74,0,1,0,7.75,7.74A7.75,7.75,0,0,0,194.06,116.65Z"/><path d="M379.87,124.39a23.23,23.23,0,1,1,23.23-23.23A23.25,23.25,0,0,1,379.87,124.39Zm0-31a7.74,7.74,0,1,0,7.74,7.74A7.75,7.75,0,0,0,379.87,93.42Z"/><path d="M287,194.06a23.23,23.23,0,1,1,23.22-23.22A23.25,23.25,0,0,1,287,194.06Zm0-31a7.74,7.74,0,1,0,7.74,7.74A7.75,7.75,0,0,0,287,163.1Z"/><path d="M299.33,169.31a7.74,7.74,0,0,1-4.65-13.93L361,105.67a7.74,7.74,0,1,1,9.29,12.38L304,167.76A7.7,7.7,0,0,1,299.33,169.31Z"/><path d="M273.14,171.67a7.71,7.71,0,0,1-3.46-.82l-63.59-31.8A7.74,7.74,0,1,1,213,125.2l63.6,31.8a7.74,7.74,0,0,1-3.47,14.67Z"/><path d="M142.65,202.81a7.74,7.74,0,0,1-6.26-12.29l41.44-57a7.74,7.74,0,0,1,12.52,9.1l-41.44,57A7.7,7.7,0,0,1,142.65,202.81Z"/><circle cx="426.32" cy="379.87" r="7.74"/><path d="M209.55,325.68H85.68a7.75,7.75,0,0,1,0-15.49H209.55a7.75,7.75,0,0,1,0,15.49Z"/><circle cx="240.52" cy="317.94" r="7.74"/></svg>