<svg id="Layer_1" data-name="Layer 1" xmlns="http://www.w3.org/2000/svg" viewBox="0 0 512 512"><defs><style>.cls-1,.cls-3{fill:#fff;}.cls-2{fill:#3b83f8;}.cls-3{fill-rule:evenodd;}</style></defs><path class="cls-1" d="M426.32,333.42a7.73,7.73,0,0,1-7.74-7.74V302.45a23.25,23.25,0,0,0-23.23-23.22H116.65a23.25,23.25,0,0,0-23.23,23.22v23.23a7.74,7.74,0,1,1-15.48,0V302.45a38.75,38.75,0,0,1,38.71-38.71h278.7a38.75,38.75,0,0,1,38.71,38.71v23.23A7.73,7.73,0,0,1,426.32,333.42Z"/><path class="cls-1" d="M256,333.42a7.73,7.73,0,0,1-7.74-7.74V209.55a7.74,7.74,0,0,1,15.48,0V325.68A7.73,7.73,0,0,1,256,333.42Z"/><circle class="cls-2" cx="256" cy="116.65" r="100.65"/><path class="cls-1" d="M85.68,410.84a23.23,23.23,0,1,1,23.22-23.23A23.26,23.26,0,0,1,85.68,410.84Zm0-31a7.74,7.74,0,1,0,7.74,7.74A7.75,7.75,0,0,0,85.68,379.87Z"/><path class="cls-1" d="M124.39,496H47a7.73,7.73,0,0,1-7.74-7.74V439.5a69.67,69.67,0,1,1,92.9,0v48.76A7.73,7.73,0,0,1,124.39,496ZM54.71,480.52h61.94v-44.6a7.74,7.74,0,0,1,2.89-6,54.2,54.2,0,1,0-67.73,0,7.75,7.75,0,0,1,2.9,6Z"/><path class="cls-1" d="M139.87,465H31.48a7.74,7.74,0,0,1,0-15.48H139.87a7.74,7.74,0,1,1,0,15.48Z"/><path class="cls-1" d="M85.68,465a7.73,7.73,0,0,1-7.74-7.74V403.1a7.74,7.74,0,1,1,15.48,0v54.19A7.73,7.73,0,0,1,85.68,465Z"/><path class="cls-1" d="M256,410.84a23.23,23.23,0,1,1,23.23-23.23A23.26,23.26,0,0,1,256,410.84Zm0-31a7.74,7.74,0,1,0,7.74,7.74A7.75,7.75,0,0,0,256,379.87Z"/><path class="cls-1" d="M294.71,496H217.29a7.73,7.73,0,0,1-7.74-7.74V439.5a69.68,69.68,0,1,1,92.9,0v48.76A7.73,7.73,0,0,1,294.71,496ZM225,480.52H287v-44.6a7.74,7.74,0,0,1,2.89-6,54.19,54.19,0,1,0-67.72,0,7.74,7.74,0,0,1,2.89,6Z"/><path class="cls-1" d="M310.19,465H201.81a7.74,7.74,0,1,1,0-15.48H310.19a7.74,7.74,0,1,1,0,15.48Z"/><path class="cls-1" d="M256,465a7.73,7.73,0,0,1-7.74-7.74V403.1a7.74,7.74,0,1,1,15.48,0v54.19A7.73,7.73,0,0,1,256,465Z"/><path class="cls-1" d="M426.32,410.84a23.23,23.23,0,1,1,23.23-23.23A23.25,23.25,0,0,1,426.32,410.84Zm0-31a7.74,7.74,0,1,0,7.74,7.74A7.75,7.75,0,0,0,426.32,379.87Z"/><path class="cls-1" d="M465,496H387.61a7.73,7.73,0,0,1-7.74-7.74V439.5a69.68,69.68,0,1,1,92.9,0v48.76A7.73,7.73,0,0,1,465,496Zm-69.68-15.48h61.94v-44.6a7.75,7.75,0,0,1,2.9-6,54.2,54.2,0,1,0-67.73,0,7.74,7.74,0,0,1,2.89,6Z"/><path class="cls-1" d="M480.52,465H372.13a7.74,7.74,0,0,1,0-15.48H480.52a7.74,7.74,0,1,1,0,15.48Z"/><path class="cls-1" d="M426.32,465a7.73,7.73,0,0,1-7.74-7.74V403.1a7.74,7.74,0,1,1,15.48,0v54.19A7.73,7.73,0,0,1,426.32,465Z"/><path class="cls-1" d="M395.35,47a7.75,7.75,0,0,1-7.74-7.74V23.74a7.75,7.75,0,0,1,15.49,0V39.23A7.75,7.75,0,0,1,395.35,47Z"/><path class="cls-1" d="M395.35,93.42a7.74,7.74,0,0,1-7.74-7.74V70.19a7.75,7.75,0,0,1,15.49,0V85.68A7.74,7.74,0,0,1,395.35,93.42Z"/><path class="cls-1" d="M426.32,62.45H410.84a7.74,7.74,0,1,1,0-15.48h15.48a7.74,7.74,0,1,1,0,15.48Z"/><path class="cls-1" d="M379.87,62.45H364.39a7.74,7.74,0,0,1,0-15.48h15.48a7.74,7.74,0,1,1,0,15.48Z"/><path class="cls-1" d="M101.16,186.32a7.73,7.73,0,0,1-7.74-7.74V163.1a7.74,7.74,0,1,1,15.48,0v15.48A7.73,7.73,0,0,1,101.16,186.32Z"/><path class="cls-1" d="M101.16,232.77A7.73,7.73,0,0,1,93.42,225V209.55a7.74,7.74,0,0,1,15.48,0V225A7.73,7.73,0,0,1,101.16,232.77Z"/><path class="cls-1" d="M132.13,201.81H116.65a7.75,7.75,0,1,1,0-15.49h15.48a7.75,7.75,0,0,1,0,15.49Z"/><path class="cls-1" d="M85.68,201.81H70.19a7.75,7.75,0,0,1,0-15.49H85.68a7.75,7.75,0,0,1,0,15.49Z"/><path class="cls-1" d="M434.06,201.81a7.75,7.75,0,0,1-7.74-7.75V178.58a7.75,7.75,0,0,1,15.49,0v15.48A7.75,7.75,0,0,1,434.06,201.81Z"/><path class="cls-1" d="M434.06,248.26a7.74,7.74,0,0,1-7.74-7.74V225a7.75,7.75,0,0,1,15.49,0v15.49A7.74,7.74,0,0,1,434.06,248.26Z"/><path class="cls-1" d="M465,217.29H449.55a7.74,7.74,0,0,1,0-15.48H465a7.74,7.74,0,1,1,0,15.48Z"/><path class="cls-1" d="M418.58,217.29H403.1a7.74,7.74,0,1,1,0-15.48h15.48a7.74,7.74,0,1,1,0,15.48Z"/><path class="cls-3" d="M220.18,153.21c-20.85,0-34.74-11-34.74-32.71,0-20,12.42-33.24,32.34-33.24h12.11v12.3H223c-14.82,0-20.15,6.63-20.15,20.71,0,12.65,3.48,20.85,18.64,20.85h13.25V129.44l17,14.43v9.34Zm58.06-24.6v24.6h-17V134.86l-26.5-22.77V87.28h16.89v18.77Zm0-29.07v11.22l-17-13.68V87.26h33.93c22,0,31.16,11.6,32.25,28.7v7.19c-.61,9.45-3.78,18.75-12,24.31-8.71,6-19,5.87-29,5.77l-3.74,0V141.12h5.3c16.07,0,22-3.26,21.95-19.69,0-13-3.6-21.89-18.3-21.89Z"/></svg>