<svg id="Layer_1" data-name="Layer 1" xmlns="http://www.w3.org/2000/svg" viewBox="0 0 512 512"><defs><style>.cls-1{fill:#fff;}.cls-2{fill:#3b83f8;}</style></defs><path class="cls-1" d="M464,152H272a8,8,0,0,1,0-16H464a8,8,0,0,1,0,16Z"/><path class="cls-1" d="M416,280H272a8,8,0,0,1,0-16H416a8,8,0,0,1,0,16Z"/><path class="cls-1" d="M464,280H448a8,8,0,0,1,0-16h16a8,8,0,0,1,0,16Z"/><path class="cls-1" d="M464,312H352a8,8,0,0,1-8-8V112a8,8,0,0,1,8-8H464a8,8,0,0,1,8,8V304A8,8,0,0,1,464,312ZM360,296h96V120H360Z"/><path class="cls-1" d="M464,184H320a8,8,0,0,1,0-16H464a8,8,0,0,1,0,16Z"/><path class="cls-1" d="M288,184H272a8,8,0,0,1,0-16h16a8,8,0,0,1,0,16Z"/><path class="cls-1" d="M464,216H272a8,8,0,0,1,0-16H464a8,8,0,0,1,0,16Z"/><path class="cls-1" d="M464,248H272a8,8,0,0,1,0-16H464a8,8,0,0,1,0,16Z"/><path class="cls-1" d="M496,392H272a8,8,0,0,1,0-16H488V83.31L428.69,24H200V144a8,8,0,0,1-16,0V16a8,8,0,0,1,8-8H432a8,8,0,0,1,5.66,2.34l64,64A8,8,0,0,1,504,80V384A8,8,0,0,1,496,392Z"/><path class="cls-1" d="M496,88H432a8,8,0,0,1-8-8V16a8,8,0,0,1,16,0V72h56a8,8,0,0,1,0,16Z"/><path class="cls-1" d="M272,504H16a8,8,0,0,1-8-8V144a8,8,0,0,1,8-8H272a8,8,0,0,1,8,8V496A8,8,0,0,1,272,504ZM24,488H264V152H24Z"/><path class="cls-1" d="M240,472H48a8,8,0,0,1-8-8V272a8,8,0,0,1,8-8H240a8,8,0,0,1,8,8V464A8,8,0,0,1,240,472ZM56,456H232V280H56Z"/><path class="cls-1" d="M240,376H48a8,8,0,0,1,0-16H240a8,8,0,0,1,0,16Z"/><path class="cls-1" d="M144,472a8,8,0,0,1-8-8V272a8,8,0,0,1,16,0V464A8,8,0,0,1,144,472Z"/><path class="cls-1" d="M112,328H80a8,8,0,0,1,0-16h32a8,8,0,0,1,0,16Z"/><path class="cls-1" d="M96,344a8,8,0,0,1-8-8V304a8,8,0,0,1,16,0v32A8,8,0,0,1,96,344Z"/><path class="cls-1" d="M208,328H176a8,8,0,0,1,0-16h32a8,8,0,0,1,0,16Z"/><path class="cls-1" d="M208,408H176a8,8,0,0,1,0-16h32a8,8,0,0,1,0,16Z"/><path class="cls-1" d="M208,440H176a8,8,0,0,1,0-16h32a8,8,0,0,1,0,16Z"/><path class="cls-1" d="M112,440a8,8,0,0,1-5.66-2.34l-32-32a8,8,0,0,1,11.32-11.32l32,32A8,8,0,0,1,112,440Z"/><path class="cls-1" d="M80,440a8,8,0,0,1-5.66-13.66l32-32a8,8,0,0,1,11.32,11.32l-32,32A8,8,0,0,1,80,440Z"/><path class="cls-2" d="M240,248H48a8,8,0,0,1-8-8V176a8,8,0,0,1,8-8H240a8,8,0,0,1,8,8v64A8,8,0,0,1,240,248Z"/></svg>