<svg id="Layer_1" data-name="Layer 1" xmlns="http://www.w3.org/2000/svg" viewBox="0 0 512 512"><defs><style>.cls-1,.cls-3{fill:#fff;}.cls-2{fill:#3b83f8;}.cls-3{fill-rule:evenodd;}</style></defs><path class="cls-1" d="M160,440a8,8,0,0,1-8-8V248a64,64,0,0,1,128,0v96a48,48,0,0,0,96,0V256a8,8,0,0,1,16,0v88a64,64,0,0,1-128,0V248a48,48,0,0,0-96,0V432A8,8,0,0,1,160,440Z"/><circle class="cls-1" cx="416" cy="288" r="8"/><circle class="cls-1" cx="416" cy="320" r="8"/><circle class="cls-1" cx="416" cy="352" r="8"/><circle class="cls-2" cx="384" cy="176" r="88"/><path class="cls-1" d="M112,456a8,8,0,0,1-8-8V112a8,8,0,0,1,16,0V448A8,8,0,0,1,112,456Z"/><path class="cls-1" d="M16,456a8,8,0,0,1-8-8V64a56,56,0,0,1,112,0V80a8,8,0,0,1-16,0V64a40,40,0,0,0-80,0V448A8,8,0,0,1,16,456Z"/><path class="cls-1" d="M64,504a56,56,0,1,1,56-56A56.06,56.06,0,0,1,64,504Zm0-96a40,40,0,1,0,40,40A40.05,40.05,0,0,0,64,408Z"/><path class="cls-1" d="M496,504H64a8,8,0,0,1,0-16H488V72H112a8,8,0,0,1,0-16H496a8,8,0,0,1,8,8V496A8,8,0,0,1,496,504Z"/><circle class="cls-1" cx="192" cy="240" r="8"/><circle class="cls-1" cx="192" cy="272" r="8"/><circle class="cls-1" cx="192" cy="304" r="8"/><path class="cls-1" d="M160,472a24,24,0,1,1,24-24A24,24,0,0,1,160,472Zm0-32a8,8,0,1,0,8,8A8,8,0,0,0,160,440Z"/><path class="cls-3" d="M348.18,209.21c-20.85,0-34.74-11-34.74-32.71,0-20,12.42-33.24,32.34-33.24h12.11v12.3H351c-14.82,0-20.15,6.63-20.15,20.71,0,12.65,3.48,20.85,18.64,20.85h13.25V185.44l17,14.43v9.34Zm58.06-24.6v24.6h-17V190.86l-26.5-22.77V143.28h16.89v18.77Zm0-29.07v11.22l-17-13.68v-9.82h33.93c22,0,31.16,11.6,32.25,28.7v7.19c-.61,9.45-3.78,18.75-12,24.31-8.71,6-19,5.87-29,5.77l-3.74,0V197.12h5.3c16.07,0,22-3.26,21.95-19.69,0-13-3.6-21.89-18.3-21.89Z"/></svg>